<?xml version="1.0" encoding="utf-8"?>
<!-- Svg Vector Icons : http://www.onlinewebfonts.com/icon -->
<!DOCTYPE svg PUBLIC "-//W3C//DTD SVG 1.1//EN" "http://www.w3.org/Graphics/SVG/1.1/DTD/svg11.dtd">
<svg version="1.1" xmlns="http://www.w3.org/2000/svg" xmlns:xlink="http://www.w3.org/1999/xlink" x="0px" y="0px" viewBox="0 0 1000 1000" enable-background="new 0 0 1000 1000" xml:space="preserve">
<metadata> Svg Vector Icons : http://www.onlinewebfonts.com/icon </metadata>
<g><g transform="translate(0.000000,511.000000) scale(0.100000,-0.100000)"><path d="M3699.1,3245.6C1020.5,1906.3,164.5,1467.7,136.8,1425.1c-38.3-57.5-40.5-323.7-34.1-4273.4v-609l57.5-68.1c40.5-51.1,355.6-217.2,1239.2-658c651.6-325.8,1213.7-598.3,1249.9-606.8c59.6-12.8,477,189.5,3619.7,1760.9c3057.6,1528.8,3558,1786.5,3592.1,1841.8c34.1,61.8,36.2,210.8,38.3,2459.3c2.1,2159.1-2.1,2401.8-31.9,2461.4c-29.8,57.5-187.4,140.5-1247.7,672.9c-1037,519.5-1226.4,606.8-1303.1,604.7C7240.1,5010.8,6675.8,4736.1,3699.1,3245.6z M8162,4018.5c462.1-232.1,841.1-425.9,841.1-432.2c0-17-6279.2-3151.3-6313.3-3151.3c-34.1,0-1692.8,824-1692.8,841.1c0,10.6,6281.3,3159.8,6306.9,3159.8C7314.6,4438,7700,4248.5,8162,4018.5z M9365.1,2873v-266.2l-873-436.5c-479.1-240.6-877.3-436.5-883.6-436.5c-6.4,0-10.7,119.2-10.7,266.2v266.2l868.7,434.4c477,240.6,873,436.5,883.6,436.5C9358.7,3139.1,9365.1,3019.9,9365.1,2873z M7044.2,1716.8v-270.4l-883.7-442.9l-883.6-440.8v272.5v270.4l879.4,440.8c481.2,242.7,879.4,440.8,883.6,440.8C7042.1,1989.3,7044.2,1868,7044.2,1716.8z M9365.1,1716.8v-270.4l-308.7-155.4l-308.8-153.3v272.5v270.4l304.5,153.3c166.1,85.2,304.5,153.3,308.8,153.3C9363,1989.3,9365.1,1868,9365.1,1716.8z M8194,1127V860.8l-873-436.5c-479.1-240.6-877.3-436.5-883.7-436.5s-10.6,119.2-10.6,266.1v266.2l868.7,434.4c477,240.6,873,436.5,883.6,436.5C8187.6,1393.1,8194,1273.9,8194,1127z M954.5,669.2l298.1-149V254c0-146.9-4.3-266.1-10.6-266.1s-144.8,68.1-308.7,149l-298.1,149v266.2c0,146.9,4.3,266.2,10.6,266.2S790.5,750.1,954.5,669.2z M4723.3,552.1V285.9l-873-436.5c-479.1-240.6-877.3-436.5-883.6-436.5c-6.4,0-10.6,119.2-10.6,266.2v266.2l868.7,434.4c477,240.6,873,436.5,883.6,436.5C4716.9,818.2,4723.3,699,4723.3,552.1z M9365.1,552.1V285.9l-873-436.5c-481.2-240.6-879.4-436.5-883.6-436.5c-6.4,0-10.7,123.5-10.7,272.5v274.7L8466.5,386c477,236.3,873,430.1,883.6,430.1C9358.7,818.2,9365.1,699,9365.1,552.1z M2402.4-320.9c0-146.9-4.3-266.2-10.6-266.2c-6.4,0-140.5,63.9-298.1,142.7l-287.5,144.8v270.4v272.5l298.1-149.1l298.1-149V-320.9z M5873.1-29.2v-270.4l-862.4-432.2c-474.8-236.4-866.6-430.1-873-430.1c-6.4,0-10.6,119.2-10.6,266.2v266.2l868.7,434.4c477,240.6,868.8,436.5,873,436.5C5870.9,243.3,5873.1,122,5873.1-29.2z M1529.4-768.1l873-436.5v-276.8v-276.8l-877.3,440.8L645.7-874.5L639.4-602c-2.1,149.1,0,270.4,6.4,270.4S1050.3-527.5,1529.4-768.1z M7044.2-602v-272.5l-883.7-440.8l-883.6-442.9v276.8v276.8l868.7,434.4c477,240.6,873,436.5,883.6,436.5C7037.8-331.6,7044.2-452.9,7044.2-602z M9360.8-602l-6.4-272.5L9052.1-1030l-304.5-155.4v278.9v276.8l293.8,146.9c159.7,83.1,300.2,149.1,308.7,149.1C9358.7-331.6,9363-452.9,9360.8-602z M3565-1432.4c-6.4-14.9-144.8-93.7-310.9-176.7L2956-1758.2v272.5v270.4l304.5,151.2l302.4,151.2l6.4-244.9C3571.3-1294,3569.2-1417.5,3565-1432.4z M8194-1183.3v-276.8l-873-436.5c-479.1-240.6-877.3-436.5-883.7-436.5s-8.5,121.4-6.4,272.5l6.4,270.4l873,440.8c481.2,242.7,875.1,440.7,879.4,440.7C8191.9-906.5,8194-1030,8194-1183.3z M4723.3-1758.2V-2035l-873-436.5c-481.2-240.6-879.4-436.5-883.6-436.5c-6.4,0-10.6,121.4-10.6,272.5v270.4l879.4,440.8c481.2,242.7,879.4,440.7,883.6,440.7C4721.2-1481.4,4723.3-1604.9,4723.3-1758.2z M965.1-1645.3l287.5-144.8v-270.4v-272.5l-308.7,153.3l-308.7,155.4v259.8c0,159.7,8.5,261.9,21.3,261.9C667-1502.7,807.6-1566.5,965.1-1645.3z M2114.9-2220.2l287.5-144.8v-270.4V-2908l-298.1,149.1l-298.1,149.1v266.2c0,146.9,4.3,266.2,10.6,266.2C1823.2-2077.6,1957.4-2141.4,2114.9-2220.2z M5873.1-2350.1v-270.4l-862.4-432.2c-474.8-236.4-866.6-430.1-873-430.1c-6.4,0-10.6,121.4-10.6,272.5v270.4l858.1,430.1c470.6,236.3,862.3,430.1,873,430.1C5866.7-2077.6,5873.1-2198.9,5873.1-2350.1z M1529.4-3089l873-436.5v-266.2c0-146.9-4.3-266.2-10.6-266.2c-6.4,0-404.6,195.9-883.6,436.5l-873,436.5v266.2c0,146.9,4.3,266.2,10.6,266.2S1050.3-2848.4,1529.4-3089z M3569.2-3497.8l-6.4-272.5l-302.4-155.4L2956-4081.2v278.9v276.8l293.8,146.9c159.7,83,300.2,149.1,308.7,149.1C3567.1-3227.4,3571.3-3348.7,3569.2-3497.8z"/></g></g>
</svg>